<?xml version="1.0" encoding="utf-8"?>
<!-- Generator: Adobe Illustrator 27.5.0, SVG Export Plug-In . SVG Version: 6.00 Build 0)  -->
<svg version="1.1" id="Capa_1" xmlns="http://www.w3.org/2000/svg" xmlns:xlink="http://www.w3.org/1999/xlink" x="0px" y="0px"
	 viewBox="0 0 425.2 425.2" style="enable-background:new 0 0 425.2 425.2;" xml:space="preserve">
<g id="XMLID_33315_">
	<g id="XMLID_33341_">
		<g id="XMLID_33417_">
			<path id="XMLID_41150_" style="fill:#DEA078;" d="M127.885,152.3c0,0-24.376-10.25-40.104,11.78
				c-15.724,22.03-14.918,112.209-14.918,112.209l37.274,28.497c0,0,6.711-19.599,12.519-39.404
				c3.65-12.471,16.162-31.162,14.149-51.158c-2.009-19.998,6.124-27.873-10.569-37.449c-5.99-3.437-9.306,7.858-9.336,3.981
				C116.856,175.292,123.062,162.498,127.885,152.3z"/>
			<g id="XMLID_33419_">
				<g id="XMLID_33432_">
					<path id="XMLID_41149_" style="fill:#D29973;" d="M144.415,198.82c-5.712-6.458-3.454-11.587-3.194-13.237l4.063-15.768
						c1.251-4.882,6.22-7.827,11.1-6.573l1.998,0.507c4.88,1.251,7.829,6.226,6.577,11.104l-7.594,30.226
						C157.365,205.077,147.724,202.557,144.415,198.82z"/>
					<path id="XMLID_41148_" style="fill:#D29973;" d="M162.241,181.677c-2.722,4.239-8.367,5.474-12.608,2.75l-19.411-12.46
						c-4.241-2.724-5.47-8.367-2.748-12.608l1.114-1.736c2.722-4.241,8.363-5.472,12.608-2.75l19.408,12.459
						c4.241,2.724,5.474,8.365,2.752,12.608L162.241,181.677z"/>
					<path id="XMLID_41147_" style="fill:#D29973;" d="M143.784,158.825c3.194,3.898,2.626,9.646-1.274,12.844l-27.815,22.776
						c-3.896,3.194-9.648,2.622-12.842-1.276l-1.311-1.593c-3.19-3.897-2.618-9.646,1.277-12.842l27.815-22.774
						c3.899-3.196,9.645-2.627,12.838,1.27L143.784,158.825z"/>
				</g>
				<g id="XMLID_33428_">
					<path id="XMLID_33431_" style="fill:#DEA078;" d="M170.556,192.035c-5.946-1.549-9.091-3.706-11.345-11.178l-5.868-21.428
						c-1.426-5.166,1.597-10.511,6.763-11.938l2.117-0.587c5.166-1.43,10.513,1.602,11.939,6.768l10.168,36.569
						C184.33,190.241,176.501,193.581,170.556,192.035z"/>
					<path id="XMLID_33430_" style="fill:#DEA078;" d="M173.333,161.896c-1.604,5.634-7.472,8.904-13.106,7.299l-25.791-7.336
						c-5.63-1.606-8.902-7.474-7.297-13.105l0.657-2.306c1.601-5.637,7.472-8.907,13.106-7.301l25.788,7.338
						c5.634,1.603,8.902,7.472,7.297,13.106L173.333,161.896z"/>
					<path id="XMLID_33429_" style="fill:#DEA078;" d="M144.259,146.756c3.714,4.529,3.053,11.213-1.478,14.927l-32.963,27.609
						c-4.531,3.712-11.215,3.049-14.929-1.478l-1.519-1.859c-3.717-4.529-3.052-11.214,1.478-14.925l32.963-27.609
						c4.531-3.715,11.215-3.053,14.929,1.478L144.259,146.756z"/>
				</g>
				<g id="XMLID_33424_">
					<path id="XMLID_33427_" style="fill:#EAA87D;" d="M201.821,154.909c-5.441,4.163-12.181,5.123-17.462,1.966l-20.347-12.168
						c-5.285-3.16-7.004-10.001-3.844-15.284l1.292-2.163c3.156-5.283,10.001-7.004,15.282-3.843l34.225,20.161
						C210.968,143.579,207.265,150.746,201.821,154.909z"/>
					<path id="XMLID_33426_" style="fill:#EAA87D;" d="M181.957,136.159c-0.327,6.148-5.574,10.866-11.72,10.538l-28.127-1.487
						c-6.146-0.33-10.87-5.574-10.539-11.72l0.134-2.52c0.323-6.142,5.57-10.862,11.717-10.536l28.131,1.493
						c6.146,0.325,10.863,5.571,10.54,11.719L181.957,136.159z"/>
					<path id="XMLID_33425_" style="fill:#EAA87D;" d="M152.73,127.222c3.602,4.993,2.477,11.954-2.51,15.56l-46.254,32.372
						c-4.988,3.604-11.954,2.479-15.556-2.51l-1.474-2.044c-3.602-4.987-2.481-11.954,2.51-15.555l46.25-32.376
						c4.987-3.606,11.954-2.481,15.56,2.512L152.73,127.222z"/>
				</g>
				<g id="XMLID_33420_">
					<path id="XMLID_33423_" style="fill:#FAB589;" d="M191.612,115.455c-3.732,6.878-10.32,11.02-17.302,10.187l-26.887-3.213
						c-6.989-0.837-11.969-7.173-11.134-14.153l0.338-2.859c0.836-6.982,7.171-11.965,14.153-11.132l45.091,5.086
						C195.872,99.371,195.352,108.572,191.612,115.455z"/>
					<path id="XMLID_33422_" style="fill:#FAB589;" d="M162.155,105.151c2.522,6.564-0.754,13.93-7.316,16.453l-30.04,11.551
						c-6.558,2.523-13.93-0.75-16.451-7.312l-1.036-2.689c-2.522-6.566,0.75-13.93,7.32-16.454l30.032-11.553
						c6.566-2.522,13.934,0.754,16.455,7.316L162.155,105.151z"/>
					<path id="XMLID_33421_" style="fill:#FAB589;" d="M127.503,109.448c6.083,3.526,8.155,11.316,4.627,17.399l-33.156,55.321
						c-3.532,6.087-11.323,8.157-17.41,4.631l-2.488-1.443c-6.083-3.528-8.155-11.32-4.627-17.402l33.163-55.321
						c3.524-6.085,11.315-8.157,17.399-4.633L127.503,109.448z"/>
				</g>
			</g>
			<path id="XMLID_33418_" style="fill:#FAB589;" d="M116.763,152.488c0,0-24.38-10.25-40.104,11.782
				c-15.731,22.03-14.922,112.207-14.922,112.207l-14.216,42.913l51.995,17.82l10.621-32.424c0,0,6.094-22.336,11.906-42.141
				c3.65-12.472,13.288-21.131,8.928-46.376c0,0-9.299-15.117-17.283-19.839c-5.946-3.515-21.049,10.454-21.083,6.577
				C92.565,197.542,111.931,162.685,116.763,152.488z"/>
		</g>
		<g id="XMLID_33348_">
			
				<rect id="XMLID_33416_" x="105.427" y="57.869" transform="matrix(0.9796 -0.2009 0.2009 0.9796 -30.7623 43.5789)" style="fill:#FFFFFF;stroke:#BCBEC0;stroke-width:2;stroke-miterlimit:10;" width="187.812" height="230.974"/>
			
				<rect id="XMLID_33415_" x="186.009" y="68.083" transform="matrix(0.9796 -0.2009 0.2009 0.9796 -12.0889 46.3615)" style="fill:#699F5B;" width="72.752" height="29.322"/>
			<g id="XMLID_33408_">
				
					<rect id="XMLID_33413_" x="191.483" y="107.102" transform="matrix(0.9796 -0.2009 0.2009 0.9796 -17.3407 48.0116)" style="fill:#DCDDDE;" width="72.753" height="4.666"/>
				
					<rect id="XMLID_33412_" x="193.262" y="115.786" transform="matrix(0.9796 -0.2009 0.2009 0.9796 -19.0475 48.5406)" style="fill:#DCDDDE;" width="72.754" height="4.666"/>
				
					<rect id="XMLID_33411_" x="195.047" y="124.469" transform="matrix(0.9796 -0.2009 0.2009 0.9796 -20.7549 49.0739)" style="fill:#DCDDDE;" width="72.754" height="4.666"/>
				
					<rect id="XMLID_33410_" x="196.827" y="133.154" transform="matrix(0.9796 -0.2009 0.2009 0.9796 -22.4637 49.6106)" style="fill:#DCDDDE;" width="72.752" height="4.663"/>
				
					<rect id="XMLID_33409_" x="198.608" y="141.836" transform="matrix(0.9796 -0.2009 0.2009 0.9796 -24.1724 50.1471)" style="fill:#DCDDDE;" width="72.751" height="4.666"/>
			</g>
			<g id="XMLID_33402_">
				
					<rect id="XMLID_33407_" x="201.215" y="153.307" transform="matrix(0.9796 -0.2009 0.2009 0.9796 -26.6721 50.9276)" style="fill:#7CB96A;" width="72.752" height="7.148"/>
				
					<rect id="XMLID_33406_" x="203.244" y="164.448" transform="matrix(0.9796 -0.2009 0.2009 0.9796 -28.6226 51.5441)" style="fill:#DCDDDE;" width="72.754" height="4.667"/>
				
					<rect id="XMLID_33405_" x="205.025" y="173.133" transform="matrix(0.9796 -0.2009 0.2009 0.9796 -30.3311 52.0793)" style="fill:#DCDDDE;" width="72.754" height="4.665"/>
				
					<rect id="XMLID_33404_" x="206.806" y="181.815" transform="matrix(0.9796 -0.2009 0.2009 0.9796 -32.0371 52.6091)" style="fill:#DCDDDE;" width="72.751" height="4.666"/>
				
					<rect id="XMLID_33403_" x="208.829" y="192.891" transform="matrix(0.9796 -0.2009 0.2009 0.9796 -34.4588 50.8393)" style="fill:#DCDDDE;" width="48.93" height="4.666"/>
			</g>
			<g id="XMLID_33397_">
				
					<rect id="XMLID_33401_" x="210.397" y="198.122" transform="matrix(0.9796 -0.2009 0.2009 0.9796 -35.4727 53.6738)" style="fill:#7CB96A;" width="72.75" height="7.054"/>
				
					<rect id="XMLID_33400_" x="212.172" y="207.985" transform="matrix(0.9796 -0.2009 0.2009 0.9796 -37.1859 54.2226)" style="fill:#DCDDDE;" width="72.754" height="4.666"/>
				
					<rect id="XMLID_33399_" x="213.955" y="216.666" transform="matrix(0.9796 -0.2009 0.2009 0.9796 -38.8914 54.7532)" style="fill:#DCDDDE;" width="72.752" height="4.667"/>
				
					<rect id="XMLID_33398_" x="215.849" y="226.494" transform="matrix(0.9796 -0.201 0.201 0.9796 -40.954 54.2108)" style="fill:#DCDDDE;" width="61.386" height="4.666"/>
			</g>
			<g id="XMLID_33374_">
				
					<rect id="XMLID_33396_" x="117.181" y="83.536" transform="matrix(0.9796 -0.2009 0.2009 0.9796 -21.7408 32.5729)" style="fill:#A6BC87;" width="64.817" height="79.698"/>
				<g id="XMLID_33375_">
					
						<rect id="XMLID_33393_" x="144.773" y="139.139" transform="matrix(0.9796 -0.2008 0.2008 0.9796 -26.0466 33.81)" style="fill:#D09876;" width="17.675" height="12.276"/>
					<path id="XMLID_33392_" style="fill:#324345;" d="M176.587,158.526l-1.827-8.905c-0.869-4.252-5.021-6.993-9.273-6.122
						l-3.086,0.631l-7.747,6.163l-9.592-2.601l-3.064,0.626c-4.248,0.873-6.989,5.026-6.116,9.273l1.827,8.909L176.587,158.526z"/>
					<g id="XMLID_33389_">
						<polygon id="XMLID_33391_" style="fill:#FFFFFF;" points="145.403,151.346 145.087,147.682 154.654,150.293 						"/>
						<polygon id="XMLID_33390_" style="fill:#FFFFFF;" points="163.559,147.634 162.4,144.13 154.654,150.293 						"/>
					</g>
					<g id="XMLID_33376_">
						<path id="XMLID_33386_" style="fill:#DEA17D;" d="M161.342,106.386c-1.426-6.945-8.842-8.913-8.842-8.913
							s-3.376-0.893-8.645,0.184c-5.27,1.081-8.033,3.235-8.033,3.235s-6.046,4.733-4.62,11.676
							c1.422,6.945,2.373,16.481,4.367,21.307c1.998,4.837,6.432,7.769,11.928,9.282c0,0,2.934,0.85,5.734,0.277
							c2.808-0.577,5.169-2.512,5.169-2.512c4.46-3.554,7.375-7.999,7.312-13.226C165.642,122.472,162.764,113.331,161.342,106.386z
							"/>
						<path id="XMLID_33385_" style="fill:#2C231A;" d="M133.742,101.43c0,0-3.847,3.684-3.81,7.13
							c0.037,3.442,3.376,16.461,3.376,16.461s1.173-0.798,1.968,0.379c0.798,1.166-1.278-12.777-0.824-15.984
							c0.453-3.212,6.492-3.118,5.322-5.55C138.607,101.436,133.742,101.43,133.742,101.43z"/>
						<path id="XMLID_33384_" style="fill:#2C231A;" d="M154.605,97.152c0,0,4.995,1.87,6.313,5.05
							c1.322,3.183,3.376,16.463,3.376,16.463s-1.389-0.269-1.66,1.122c-0.271,1.392-3.851-12.244-5.533-15.016
							c-1.682-2.774-7.189-0.308-7.075-3.004C150.145,99.07,154.605,97.152,154.605,97.152z"/>
						<path id="XMLID_33383_" style="fill:#2C231A;" d="M154.787,95.546c-3.621,0.212-6.889-0.277-10.603-0.314
							c-6.447-0.061-12.946,2.912-12.786,9.071c0.041,1.554,1.909,0.966,1.909,0.966c3.186,0.356,7.728,2.345,10.175,4.345
							c-0.509-2.193-1.816-3.209-3.446-3.814c0.275,0.06,0.55,0.113,0.824,0.167c2.277,0.841,4.557,2.052,6.053,3.277
							c-0.293-1.265-0.858-2.128-1.59-2.757c0.876,0.017,1.719-0.039,2.544-0.162l-0.004,0.007c6.818-1.25,9.874-4.154,11.442-5.79
							c4.267-4.449,5.036-6.28,4.746-7.691C162.53,93.838,156.21,95.466,154.787,95.546z"/>
						<path id="XMLID_33380_" style="fill:#DEA17D;" d="M162.419,120.998c0,0,0.108-2.501,1.875-2.332
							c1.771,0.165,1.998,3.294,1.954,4.726c-0.041,1.424-0.661,2.397-0.661,2.397L162.419,120.998z"/>
						<path id="XMLID_33377_" style="fill:#DEA17D;" d="M135.914,126.434c0,0-1.088-2.256-2.652-1.406
							c-1.56,0.851-0.535,3.814,0.067,5.11c0.598,1.298,1.552,1.948,1.552,1.948L135.914,126.434z"/>
					</g>
				</g>
			</g>
			
				<rect id="XMLID_33373_" x="129.869" y="180.568" transform="matrix(0.9796 -0.201 0.201 0.9796 -34.969 31.2845)" style="fill:#FCDB2C;" width="13.445" height="14.593"/>
			
				<rect id="XMLID_33372_" x="133.51" y="198.332" transform="matrix(0.9796 -0.201 0.201 0.9796 -38.4701 32.3848)" style="fill:#C74E4A;" width="13.45" height="14.592"/>
			
				<rect id="XMLID_33371_" x="137.157" y="216.096" transform="matrix(0.9796 -0.2009 0.2009 0.9796 -41.9497 33.4636)" style="fill:#59B7B6;" width="13.445" height="14.592"/>
			
				<rect id="XMLID_33370_" x="140.798" y="233.86" transform="matrix(0.9796 -0.2009 0.2009 0.9796 -45.4448 34.5576)" style="fill:#9FCC3F;" width="13.447" height="14.594"/>
			<g id="XMLID_33366_">
				
					<rect id="XMLID_33369_" x="144.503" y="173.551" transform="matrix(0.9796 -0.2009 0.2009 0.9796 -31.6402 38.0053)" style="fill:#DCDDDE;" width="53.781" height="2.623"/>
				
					<rect id="XMLID_33368_" x="145.505" y="178.433" transform="matrix(0.9796 -0.2009 0.2009 0.9796 -32.5908 38.2917)" style="fill:#DCDDDE;" width="53.78" height="2.621"/>
				
					<rect id="XMLID_33367_" x="146.73" y="185.507" transform="matrix(0.9796 -0.2009 0.2009 0.9796 -34.2072 36.4872)" style="fill:#DCDDDE;" width="31.95" height="2.618"/>
			</g>
			<g id="XMLID_33362_">
				
					<rect id="XMLID_33365_" x="148.299" y="192.061" transform="matrix(0.9796 -0.2009 0.2009 0.9796 -35.2742 39.1344)" style="fill:#DCDDDE;" width="53.78" height="2.625"/>
				<polygon id="XMLID_33364_" style="fill:#DCDDDE;" points="202.798,194.138 150.108,204.941 149.585,202.372 202.267,191.568 
									"/>
				<polygon id="XMLID_33363_" style="fill:#DCDDDE;" points="182.413,203.4 151.111,209.821 150.587,207.253 181.89,200.832 				
					"/>
			</g>
			<g id="XMLID_33358_">
				
					<rect id="XMLID_33361_" x="151.94" y="209.827" transform="matrix(0.9796 -0.2009 0.2009 0.9796 -38.7715 40.2319)" style="fill:#DCDDDE;" width="53.782" height="2.622"/>
				
					<rect id="XMLID_33360_" x="152.943" y="214.708" transform="matrix(0.9796 -0.2009 0.2009 0.9796 -39.7281 40.5282)" style="fill:#DCDDDE;" width="53.78" height="2.623"/>
				
					<rect id="XMLID_33359_" x="154.168" y="221.781" transform="matrix(0.9796 -0.2009 0.2009 0.9796 -41.3411 38.7201)" style="fill:#DCDDDE;" width="31.952" height="2.62"/>
			</g>
			<g id="XMLID_33354_">
				
					<rect id="XMLID_33357_" x="155.585" y="227.592" transform="matrix(0.9796 -0.201 0.201 0.9796 -42.2791 41.3418)" style="fill:#DCDDDE;" width="53.781" height="2.62"/>
				
					<rect id="XMLID_33356_" x="156.586" y="232.473" transform="matrix(0.9796 -0.2009 0.2009 0.9796 -43.2295 41.6303)" style="fill:#DCDDDE;" width="53.779" height="2.622"/>
				
					<rect id="XMLID_33355_" x="157.807" y="239.547" transform="matrix(0.9796 -0.2009 0.2009 0.9796 -44.8537 39.8335)" style="fill:#DCDDDE;" width="31.954" height="2.62"/>
			</g>
			<g id="XMLID_33349_">
				
					<rect id="XMLID_33353_" x="162.818" y="244.81" transform="matrix(0.9796 -0.2009 0.2009 0.9796 -45.4562 47.7968)" style="fill:#7CB96A;" width="99.871" height="6.077"/>
				
					<rect id="XMLID_33352_" x="132.297" y="254.579" transform="matrix(0.9796 -0.2009 0.2009 0.9796 -47.1879 48.7216)" style="fill:#DCDDDE;" width="168.323" height="4.556"/>
				
					<rect id="XMLID_33351_" x="134.33" y="264.499" transform="matrix(0.9796 -0.2009 0.2009 0.9796 -49.1416 49.3352)" style="fill:#DCDDDE;" width="168.324" height="4.558"/>
				
					<rect id="XMLID_33350_" x="137.17" y="282.348" transform="matrix(0.9796 -0.2009 0.2009 0.9796 -53.4665 42.3339)" style="fill:#DCDDDE;" width="89.398" height="4.555"/>
			</g>
		</g>
		<path id="XMLID_33347_" style="fill:#FAB589;" d="M166.114,165.482c-1.222,13.018-9.24,15.83-11.338,17.254l-21.665,11.847
			c-6.696,3.673-15.107,1.227-18.78-5.472l-1.504-2.744c-3.68-6.699-1.229-15.107,5.47-18.782l41.329-22.919
			C159.626,144.665,166.823,157.943,166.114,165.482z"/>
		<path id="XMLID_33346_" style="fill:#FAB589;" d="M135.376,169.942c6.313,4.302,6.525,15.876,2.221,22.189
			c0,0-9.247,7.351-5.804,30.237c1.79,11.932-2.934,27.572-9.05,38.119c-4.003,6.907-18.308-35.824-22.646-38.782l-2.585-1.76
			c-6.317-4.306-7.947-12.911-3.643-19.226l19.697-28.9c4.304-6.311,12.912-7.942,19.226-3.639L135.376,169.942z"/>
		
			<rect id="XMLID_33345_" x="73.178" y="258.984" transform="matrix(0.2985 -0.9544 0.9544 0.2985 -223.3242 287.8385)" style="fill:#FFFFFF;" width="21.927" height="73.706"/>
		<polygon id="XMLID_33342_" style="fill:#1C0C1B;" points="95.142,383.842 116.043,317.301 45.698,295.301 17.92,383.842 		"/>
	</g>
	<g id="XMLID_33316_">
		<polygon id="XMLID_33338_" style="fill:#1C0C1B;" points="407.28,383.842 365.1,249.385 309.053,277.67 341.422,383.842 		"/>
		<g id="XMLID_33318_">
			<g id="XMLID_33320_">
				<path id="XMLID_33337_" style="fill:#DEA078;" d="M280.22,149.667c0,0,18.182-11.893,34.147,3.578
					c15.972,15.477,28.677,88.46,28.677,88.46l-25.903,28.549c0,0-8.319-14.84-15.95-29.986
					c-4.798-9.535-17.67-22.785-19.007-39.242c-1.341-16.457-9.076-21.615,2.993-31.824c4.334-3.667,8.679,4.974,8.133,1.833
					C292.539,166.613,285.631,157.193,280.22,149.667z"/>
				<g id="XMLID_33324_">
					<g id="XMLID_33333_">
						<path id="XMLID_33336_" style="fill:#D29973;" d="M273.755,189.704c3.661-6.063,1.073-9.869,0.62-11.165l-5.619-12.142
							c-1.734-3.762-6.187-5.403-9.942-3.671l-1.541,0.709c-3.762,1.734-5.403,6.187-3.673,9.947l10.617,23.298
							C264.218,196.68,271.634,193.219,273.755,189.704z"/>
						<path id="XMLID_33335_" style="fill:#D29973;" d="M256.813,178.493c2.826,3.027,7.568,3.183,10.591,0.355l13.841-12.942
							c3.023-2.828,3.182-7.569,0.357-10.591l-1.159-1.239c-2.83-3.021-7.572-3.183-10.591-0.358l-13.845,12.942
							c-3.023,2.83-3.179,7.574-0.353,10.597L256.813,178.493z"/>
						<path id="XMLID_33334_" style="fill:#D29973;" d="M268.34,157.299c-2.002,3.621-0.691,8.181,2.926,10.187l25.851,14.281
							c3.624,2.005,8.189,0.694,10.19-2.93l0.821-1.482c2.002-3.623,0.694-8.187-2.926-10.188l-25.854-14.283
							c-3.621-2.004-8.181-0.694-10.187,2.93L268.34,157.299z"/>
					</g>
					<g id="XMLID_33329_">
						<path id="XMLID_33332_" style="fill:#DEA078;" d="M251.629,188.094c4.572-2.13,6.796-4.341,7.509-10.714l1.571-18.18
							c0.386-4.386-2.848-8.257-7.234-8.645l-1.798-0.161c-4.382-0.384-8.256,2.852-8.645,7.236l-2.804,31.059
							C240.228,188.689,247.054,190.226,251.629,188.094z"/>
						<path id="XMLID_33331_" style="fill:#DEA078;" d="M244.922,164.154c2.128,4.311,7.353,6.088,11.665,3.955l19.753-9.746
							c4.319-2.132,6.091-7.359,3.959-11.672l-0.873-1.764c-2.132-4.317-7.349-6.087-11.668-3.957l-19.753,9.747
							c-4.312,2.13-6.09,7.357-3.955,11.668L244.922,164.154z"/>
						<path id="XMLID_33330_" style="fill:#DEA078;" d="M266.168,147.612c-2.328,4.211-0.806,9.516,3.409,11.843l30.723,17.428
							c4.211,2.33,9.511,0.804,11.843-3.404l0.951-1.729c2.332-4.208,0.806-9.511-3.402-11.839l-30.727-17.428
							c-4.211-2.33-9.514-0.808-11.843,3.404L266.168,147.612z"/>
					</g>
					<g id="XMLID_33325_">
						<path id="XMLID_33328_" style="fill:#EAA87D;" d="M220.865,162.726c5.013,2.559,10.602,2.338,14.402-0.999l14.639-12.846
							c3.803-3.333,4.174-9.115,0.847-12.916l-1.37-1.56c-3.331-3.795-9.117-4.176-12.92-0.841L211.8,154.922
							C211.8,154.922,215.851,160.169,220.865,162.726z"/>
						<path id="XMLID_33327_" style="fill:#EAA87D;" d="M234.141,144.635c1.173,4.917,6.113,7.953,11.03,6.781l22.505-5.374
							c4.924-1.172,7.955-6.109,6.785-11.028l-0.479-2.013c-1.177-4.917-6.116-7.953-11.03-6.783l-22.512,5.374
							c-4.917,1.172-7.951,6.107-6.781,11.03L234.141,144.635z"/>
						<path id="XMLID_33326_" style="fill:#EAA87D;" d="M256.434,133.084c-2.176,4.566-0.23,10.029,4.334,12.203l42.165,19.305
							c4.564,2.173,10.027,0.236,12.196-4.332l0.891-1.868c2.173-4.564,0.23-10.029-4.334-12.201l-42.165-19.307
							c-4.564-2.174-10.027-0.234-12.199,4.332L256.434,133.084z"/>
					</g>
				</g>
				<path id="XMLID_33323_" style="fill:#FAB589;" d="M251.283,165.981c2.915,10.341,9.812,11.425,11.713,12.263l19.263,6.367
					c5.957,1.975,12.393-1.25,14.372-7.206l0.806-2.442c1.98-5.955-1.248-12.387-7.201-14.364l-36.791-12.4
					C253.445,148.199,249.59,159.995,251.283,165.981z"/>
				<path id="XMLID_33322_" style="fill:#FAB589;" d="M276.785,165.033c-4.467,4.415-2.923,13.794,1.486,18.26
					c0,0,8.56,4.57,9.173,23.571c0.312,9.906,6.451,21.845,12.957,29.46c4.26,4.989,9.488-31.657,12.556-34.688l1.827-1.809
					c4.464-4.412,4.508-11.609,0.097-16.071l-20.195-20.434c-4.416-4.466-11.609-4.507-16.077-0.095L276.785,165.033z"/>
				<path id="XMLID_33321_" style="fill:#FAB589;" d="M291.651,145.597c0,0,15.285-19.56,31.314,0.6
					c13.841,17.408,29.093,94.015,29.093,94.015l-34.916,30.042c0,0-8.233-17.146-15.857-32.292
					c-4.798-9.533-13.863-15.102-14.082-36.145c0,0,5.281-13.594,11.026-18.591c4.282-3.721,18.553,5.327,18.008,2.193
					C315.463,180.994,297.062,153.121,291.651,145.597z"/>
			</g>
			<path id="XMLID_33319_" style="fill:#FAB589;" d="M255.053,75.802l67.247,69.585l-20.414,15.386
				c-0.591-1.197-6.822-10.298-16.767-21.738c-16.425-18.893-23.37-26.43-33.876-36.659
				C237.409,88.895,255.053,75.802,255.053,75.802z"/>
		</g>
		
			<rect id="XMLID_33317_" x="301.48" y="245.851" transform="matrix(0.8928 -0.4505 0.4505 0.8928 -79.2753 177.3407)" style="fill:#FFFFFF;" width="62.781" height="18.678"/>
	</g>
</g>
</svg>
